<?xml version="1.0" encoding="utf-8"?>
<!-- Generator: $$$/GeneralStr/196=Adobe Illustrator 27.6.0, SVG Export Plug-In . SVG Version: 6.00 Build 0)  -->
<svg version="1.1" id="logo" xmlns="http://www.w3.org/2000/svg" xmlns:xlink="http://www.w3.org/1999/xlink" x="0px" y="0px"
	 viewBox="0 0 252.4 252.5" style="enable-background:new 0 0 252.4 252.5;" xml:space="preserve">
<g id="brain" style="fill:#DD007E;">
	<path d="M125.1,194.1c1.9,0,3.4,1.5,3.4,3.4v4.2c0,1.9-1.5,3.4-3.4,3.4s-3.4-1.5-3.4-3.4v-4.2C121.8,195.6,123.3,194.1,125.1,194.1
		"/>
	<path d="M135.3,193.2c1.9,0,3.4,1.5,3.4,3.4s-1.5,3.4-3.4,3.4H115c-1.9,0-3.4-1.5-3.4-3.4s1.5-3.4,3.4-3.4H135.3z"/>
	<path d="M142.1,182.2c1.9,0,3.4,1.5,3.4,3.4s-1.5,3.4-3.4,3.4h-33.9c-1.9,0-3.4-1.5-3.4-3.4s1.5-3.4,3.4-3.4H142.1z"/>
	<path d="M144.2,177.2h-0.5c-1.9-0.3-3.1-2-2.9-3.8c0.4-2.8,3.5-10.7,7.1-13c1.6-1,3.7-0.5,4.7,1c1,1.6,0.5,3.7-1,4.7
		c-1.2,0.9-3.8,6.3-4.1,8.3C147.3,175.9,145.9,177.2,144.2,177.2"/>
	<path d="M106.1,177.2h0.5c1.8-0.3,3.1-2,2.9-3.8c-0.4-2.8-3.5-10.7-7.1-13c-1.6-1-3.7-0.5-4.7,1c-1,1.6-0.6,3.7,1,4.7
		c1.2,0.9,3.8,6.3,4.1,8.3C103,175.9,104.4,177.2,106.1,177.2"/>
	<path d="M131,177.2h-0.2c-1.9-0.1-3.3-1.7-3.2-3.6c0.4-8.1,1.8-25.2,4.1-32.1c0.6-1.8,2.5-2.8,4.3-2.2s2.7,2.5,2.2,4.3
		c-1.9,5.8-3.3,21.3-3.7,30.4C134.3,175.7,132.8,177.2,131,177.2"/>
	<path d="M119.3,177.2L119.3,177.2c2-0.1,3.5-1.7,3.4-3.6c-0.4-8.1-1.8-25.2-4.1-32.1c-0.6-1.8-2.5-2.8-4.3-2.2s-2.8,2.5-2.2,4.3
		c1.9,5.8,3.3,21.3,3.7,30.4C116,175.7,117.5,177.2,119.3,177.2"/>
	<path d="M125.1,117.3c3.3,0,5.9,2.7,5.9,5.9c0,0.9-0.2,1.8-0.6,2.6c-0.8,1.7-0.1,3.7,1.6,4.5c0.5,0.2,1,0.3,1.5,0.3
		c1,0,2.1-0.6,2.8-1.3c0.8-0.8,1.8-1.2,3-1.2c2.3,0,4.2,1.9,4.2,4.2c0,1.1-0.4,2.2-1.2,3c-1.3,1.3-1.3,3.5,0,4.8
		c0.7,0.7,1.5,1,2.4,1s1.7-0.3,2.4-1c2.1-2.1,3.2-4.8,3.2-7.8c0-6.1-4.9-11-11-11c-0.5,0-1.1,0-1.6,0.1c-0.9-6.2-6.2-11-12.6-11
		s-11.7,4.8-12.6,11c-0.5-0.1-1.1-0.1-1.6-0.1c-6.1,0-11,4.9-11,11c0,2.9,1.1,5.7,3.2,7.8c0.7,0.7,1.5,1,2.4,1s1.7-0.3,2.4-1
		c1.3-1.3,1.3-3.5,0-4.8c-0.8-0.8-1.2-1.9-1.2-3c0-2.3,1.9-4.2,4.2-4.2c1.1,0,2.2,0.4,3,1.2c0.7,0.7,1.8,1.3,2.8,1.3
		c0.5,0,1-0.1,1.5-0.3c1.7-0.8,2.4-2.8,1.6-4.5c-0.4-0.8-0.6-1.7-0.6-2.6C119.2,119.9,121.9,117.3,125.1,117.3"/>
	<path d="M125.1,104.3c1.9,0,3.4-1.5,3.4-3.4V66c0-4.4,1.8-5.5,2.5-5.6c1.5,0,2.5,0.6,3.8,1.3c1.4,0.8,3.1,1.8,5.3,1.8
		c1.8,0,4.3,1.5,4.7,2.5c0,0.1,0.1,0.3-0.5,0.9c-2,1.9-3.7,2.3-5.9,1.1c-1.5-0.7-3.2-0.4-4.2,0.9s-0.9,3.1,0.2,4.3
		c1,1.1,1.4,2.5,1.5,4.9c0.1,1.8,1.6,3.3,3.4,3.3h0.1c1.9-0.1,3.3-1.6,3.3-3.5c0-0.9-0.1-1.8-0.2-2.7c2.4-0.4,4.6-1.6,6.7-3.6
		c0.7-0.7,1.3-1.5,1.7-2.3h0.5c2.8,0,5.1,1.9,5.1,4.3c0,0.3,0,0.6-0.1,0.9c-0.3,1,0,2.1,0.6,2.9s1.6,1.3,2.6,1.3
		c3.2,0.1,5.9,1.9,7.1,4.4c-3.1-0.8-6.5-1.1-10.1-0.7c-3.8,0.4-8.6,0.9-10.5,4.2c-0.7,1.2-1.3,3.3,0,6.1c0.2,0.4,0.4,0.7,0.7,1
		c0.8,0.8,1.1,2.2,0.8,3.5c-0.3,1-0.9,1.6-1.8,1.9c-1,0.3-2.4-0.5-3.7-1.9c-2-2.2-3.1-5.4-2.4-7.3c0.6-1.8-0.3-3.7-2-4.3
		c-1.8-0.6-3.7,0.3-4.4,2c-1.8,5,0.6,10.7,3.8,14.2c3.1,3.4,7,4.8,10.5,3.8c3.2-0.9,5.6-3.3,6.5-6.7c0.8-3.1,0.1-6.5-1.7-9
		c1.2-0.4,3.6-0.6,4.8-0.8c5.3-0.5,10.1,0.7,13,3.3c2.1,1.9,3.1,4.5,3.1,7.9c0,0.8-0.1,1.6-0.3,2.4c-2-1.1-4.3-1.8-6.8-2
		c-1.9-0.1-3.5,1.3-3.6,3.1c-0.1,1.9,1.3,3.5,3.1,3.6c4.7,0.3,8.4,3.9,8.4,8c0,2.1-1,4.1-2.6,5.6c-2.2-2.6-5.2-4.3-8.7-4.8
		c-5.9-0.8-6.3-1.3-6.3-4.8c0-1.9-1.5-3.4-3.4-3.4s-3.4,1.5-3.4,3.4c0,9.9,7,10.9,12.2,11.5c4.6,0.6,6.7,5.2,6.7,9.4
		c0,3.3-2.4,6.2-5.9,7.2c-0.7-1.8-1.9-3.4-3.4-4.7c-1.4-1.3-3.5-1.2-4.8,0.2s-1.2,3.5,0.2,4.8s2.2,2.9,2.2,4.7
		c0,3.8-3.5,6.8-7.9,6.8c-1.3,0-2.6-0.3-3.7-0.8c-1.7-0.8-3.7-0.1-4.5,1.6c-0.8,1.7-0.1,3.7,1.6,4.5c2,1,4.3,1.5,6.6,1.5
		c7.4,0,13.6-5.2,14.5-11.8c6.7-1.6,11.7-7.3,11.7-14c0-1.9-0.3-3.6-0.7-5.3c3.8-2.7,6.2-7,6.2-11.7c0-2.9-0.9-5.6-2.5-7.9
		c1.1-2.2,1.7-4.6,1.7-7.2c0-5.3-1.9-9.8-5.4-12.9c-0.3-0.2-0.5-0.5-0.8-0.7c0-0.3,0.1-0.5,0.1-0.8c0.1-6.3-4.4-11.7-10.7-13.4
		c-0.6-5.6-5.7-10-11.9-10h-0.6c-2-3.7-6.9-5.9-10.6-5.9c-0.4,0-1.2-0.4-2-0.9c-1.6-0.9-3.9-2.2-7.1-2.2c-1.8,0-4,0.8-5.8,2.6
		c-1.8-1.8-4-2.6-5.8-2.6c-3.2,0-5.5,1.3-7.2,2.2c-0.8,0.5-1.6,0.9-2,0.9c-3.7,0-8.6,2.2-10.6,5.9h-0.6c-6.2,0-11.2,4.4-11.9,10
		c-6.3,1.7-10.8,7.1-10.7,13.4c0,0.3,0,0.5,0.1,0.8c-0.3,0.2-0.5,0.4-0.8,0.7c-3.5,3.2-5.4,7.6-5.4,12.9c0,2.5,0.6,4.9,1.7,7.2
		c-1.6,2.3-2.5,5-2.5,7.9c0,4.7,2.4,8.9,6.2,11.7c-0.5,1.6-0.7,3.4-0.7,5.3c0,6.7,5,12.4,11.7,14c0.9,6.7,7.1,11.8,14.5,11.8
		c2.3,0,4.6-0.5,6.6-1.5c1.7-0.8,2.4-2.8,1.6-4.5s-2.8-2.4-4.5-1.6c-1.2,0.5-2.4,0.8-3.7,0.8c-4.3,0-7.9-3.1-7.9-6.8
		c0-1.8,0.8-3.4,2.2-4.7s1.5-3.4,0.2-4.8c-1.2-1.4-3.4-1.5-4.8-0.2c-1.5,1.4-2.6,3-3.4,4.7c-3.4-1.1-5.8-3.9-5.8-7.2
		c0-4.3,2.1-8.8,6.7-9.4c5.2-0.7,12.2-1.6,12.2-11.5c0-1.9-1.5-3.4-3.4-3.4s-3.4,1.5-3.4,3.4c0,3.5-0.4,4-6.3,4.8
		c-3.5,0.5-6.5,2.2-8.6,4.8c-1.6-1.5-2.6-3.4-2.6-5.6c0-4.1,3.7-7.6,8.4-8c1.9-0.1,3.3-1.8,3.1-3.6c-0.1-1.9-1.8-3.3-3.6-3.1
		c-2.5,0.2-4.8,0.9-6.8,2c-0.2-0.8-0.3-1.6-0.3-2.4c0-3.4,1.1-6,3.2-7.9c2.8-2.6,7.7-3.8,12.9-3.3c1.3,0.1,3.6,0.4,4.8,0.8
		c-1.9,2.5-2.5,5.9-1.7,9c0.9,3.3,3.2,5.8,6.5,6.7c3.5,1,7.4-0.4,10.5-3.8c3.2-3.5,5.6-9.2,3.8-14.2c-0.6-1.8-2.6-2.7-4.3-2
		c-1.8,0.6-2.7,2.6-2,4.3c0.7,1.9-0.4,5.1-2.4,7.3c-1.3,1.4-2.7,2.1-3.7,1.9c-0.9-0.3-1.5-0.9-1.8-1.9c-0.3-1.2,0-2.7,0.8-3.5
		c0.3-0.3,0.5-0.6,0.7-1c1.3-2.8,0.7-4.9,0-6.1c-1.9-3.4-6.7-3.9-10.5-4.2c-3.6-0.4-7.1-0.1-10.1,0.7c1.1-2.5,3.8-4.3,7.1-4.4
		c1,0,2-0.5,2.6-1.3s0.8-1.9,0.6-2.9c-0.1-0.3-0.1-0.6-0.1-0.9c0-2.4,2.3-4.3,5.1-4.3h0.5c0.4,0.8,1,1.6,1.7,2.3
		c2.1,2,4.3,3.2,6.7,3.6c-0.1,0.9-0.2,1.8-0.2,2.7c-0.1,1.9,1.4,3.4,3.3,3.5h0.1c1.8,0,3.3-1.5,3.4-3.3c0.1-2.5,0.5-3.8,1.5-4.9
		c1.1-1.2,1.2-3,0.2-4.3s-2.8-1.7-4.2-0.9c-2.2,1.1-3.9,0.8-5.9-1.1c-0.6-0.6-0.5-0.8-0.5-0.9c0.4-1.1,2.9-2.5,4.7-2.5
		c2.2,0,3.9-1,5.3-1.8c1.3-0.7,2.4-1.3,3.8-1.3c0.6,0.1,2.5,1.2,2.5,5.6v34.9C121.8,102.7,123.3,104.3,125.1,104.3"/>
</g>
<g id="hyphens" style="fill:#DD007E;">
	<path id="hyphen12" d="M129.6,17.3c0,2.6-2.1,4.7-4.7,4.7s-4.7-2.1-4.7-4.7V4.7c0-2.6,2.1-4.7,4.7-4.7s4.7,2.1,4.7,4.7V17.3z"/>
	<path id="hyphen11" d="M53.7,28.6c-1.5-2.2-0.9-5.1,1.2-6.6c2.1-1.5,5.1-0.9,6.6,1.2l7.1,10.4c1.5,2.2,0.9,5.1-1.2,6.6
		s-5.1,0.9-6.6-1.2C60.8,39,53.7,28.6,53.7,28.6z"/>
	<path id="hyphen10" d="M17,73.4c-2.3-1.2-3.2-4.1-2-6.4s4.1-3.2,6.4-2l11.1,5.9c2.3,1.2,3.2,4.1,2,6.4s-4.1,3.2-6.4,2L17,73.4z"/>
	<path id="hyphen09" d="M4.7,128.6c-2.6,0-4.7-2.1-4.7-4.7s2.1-4.7,4.7-4.7h12.6c2.6,0,4.7,2.1,4.7,4.7s-2.1,4.7-4.7,4.7H4.7z"/>
	<path id="hyphen08" d="M19.2,184.2c-2.3,1.1-5.2,0.2-6.3-2.2c-1.1-2.3-0.2-5.2,2.1-6.3l11.3-5.6c2.3-1.2,5.2-0.2,6.3,2.2
		s0.2,5.2-2.2,6.3L19.2,184.2C19.2,184.2,19.2,184.2,19.2,184.2z"/>
	<path id="hyphen07" d="M68.6,218.9c1.5-2.1,0.9-5.1-1.2-6.6c-2.2-1.5-5.1-0.9-6.6,1.3L53.7,224c-1.5,2.1-0.9,5.1,1.2,6.6
		c2.2,1.5,5.1,0.9,6.6-1.2C61.5,229.4,68.6,218.9,68.6,218.9z"/>
	<path id="hyphen06" d="M129.6,247.8c0,2.6-2.1,4.7-4.7,4.7s-4.7-2.1-4.7-4.7v-12.6c0-2.6,2.1-4.7,4.7-4.7s4.7,2.1,4.7,4.7V247.8z"
		/>
	<path id="hyphen05" d="M183.8,218.9c-1.5-2.1-0.9-5.1,1.2-6.6c2.2-1.5,5.1-0.9,6.6,1.3l7.1,10.4c1.5,2.1,0.9,5.1-1.2,6.6
		c-2.2,1.5-5.1,0.9-6.6-1.2L183.8,218.9z"/>
	<path id="hyphen04" d="M220.5,181.5c-2.3-1.3-3.2-4.1-1.9-6.4c1.2-2.3,4.1-3.2,6.4-2l11.1,5.9c2.3,1.2,3.2,4.1,2,6.4
		c-1.2,2.3-4.1,3.2-6.4,2L220.5,181.5L220.5,181.5z"/>
	<path id="hyphen03" d="M235.1,128.6c-2.6,0-4.7-2.1-4.7-4.7s2.1-4.7,4.7-4.7h12.6c2.6,0,4.7,2.1,4.7,4.7s-2.1,4.7-4.7,4.7H235.1z"
		/>
	<path id="hyphen02" d="M226,82.4c-2.4,1.2-5.2,0.2-6.3-2.1c-1.1-2.3-0.2-5.2,2.1-6.3l11.3-5.6c2.3-1.2,5.2-0.2,6.3,2.1
		c1.1,2.3,0.2,5.2-2.1,6.3L226,82.4z"/>
	<path id="hyphen01" d="M198.7,28.6c1.5-2.2,0.9-5.1-1.2-6.6c-2.2-1.5-5.1-0.9-6.6,1.2l-7.1,10.4c-1.5,2.2-0.9,5.1,1.2,6.6
		c2.2,1.5,5.1,0.9,6.6-1.2C191.6,39,198.7,28.6,198.7,28.6z"/>
</g>
</svg>
